<?xml version="1.0" encoding="UTF-8" standalone="no"?>
<!-- Created with Inkscape (http://www.inkscape.org/) -->

<svg
   xmlns:dc="http://purl.org/dc/elements/1.1/"
   xmlns:cc="http://creativecommons.org/ns#"
   xmlns:rdf="http://www.w3.org/1999/02/22-rdf-syntax-ns#"
   xmlns:svg="http://www.w3.org/2000/svg"
   xmlns="http://www.w3.org/2000/svg"
   xmlns:sodipodi="http://sodipodi.sourceforge.net/DTD/sodipodi-0.dtd"
   xmlns:inkscape="http://www.inkscape.org/namespaces/inkscape"
   width="128"
   height="128"
   id="svg3384"
   version="1.1"
   inkscape:version="0.48.5 r10040"
   sodipodi:docname="icon.svg"
   inkscape:export-filename="/home/herman/Repos/universal-kiosk/src/icon_128.png"
   inkscape:export-xdpi="11.25"
   inkscape:export-ydpi="11.25">
  <defs
     id="defs3386">
    <inkscape:perspective
       sodipodi:type="inkscape:persp3d"
       inkscape:vp_x="0 : 64 : 1"
       inkscape:vp_y="0 : 1000 : 0"
       inkscape:vp_z="128 : 64 : 1"
       inkscape:persp3d-origin="64 : 42.666667 : 1"
       id="perspective3568" />
  </defs>
  <sodipodi:namedview
     id="base"
     pagecolor="#ffffff"
     bordercolor="#666666"
     borderopacity="1.0"
     inkscape:pageopacity="0.0"
     inkscape:pageshadow="2"
     inkscape:zoom="3.959798"
     inkscape:cx="141.20438"
     inkscape:cy="68.042434"
     inkscape:document-units="px"
     inkscape:current-layer="g140"
     showgrid="true"
     inkscape:window-width="1920"
     inkscape:window-height="1023"
     inkscape:window-x="-1"
     inkscape:window-y="33"
     inkscape:window-maximized="1"
     inkscape:snap-nodes="true"
     inkscape:snap-bbox="true">
    <inkscape:grid
       type="xygrid"
       id="grid3410"
       empspacing="5"
       visible="true"
       enabled="true"
       snapvisiblegridlinesonly="true" />
  </sodipodi:namedview>
  <metadata
     id="metadata3389">
    <rdf:RDF>
      <cc:Work
         rdf:about="">
        <dc:format>image/svg+xml</dc:format>
        <dc:type
           rdf:resource="http://purl.org/dc/dcmitype/StillImage" />
        <dc:title></dc:title>
      </cc:Work>
    </rdf:RDF>
  </metadata>
  <g
     inkscape:label="Layer 1"
     inkscape:groupmode="layer"
     id="layer1"
     transform="translate(0,-924.36218)">
    <g
       id="g140"
       transform="matrix(0.45210292,0,0,-0.35069508,86.268329,1008.2287)">
      <path
         inkscape:connector-curvature="0"
         d="M 0,0 C 0.239,1.648 0.476,3.305 0.712,4.964 6.928,9.208 11.02,16.345 11.02,24.424 l 0,33.231 c 0,4.206 -1.122,8.15 -3.062,11.571 0.275,4.463 0.444,8.588 0.47,12.226 l 16.823,0 c 0.05,-0.727 0.079,-1.443 0.075,-2.143 C 25.344,62.918 19.84,30.454 13.793,-0.04 z M 11.837,-9.754 C 8.456,-26.302 5.075,-41.698 2.54,-52.953 1.113,-59.285 -0.044,-64.3 -0.784,-67.478 l -10.044,0 c 1.769,10.12 6.169,35.772 10.319,63.995 l 13.608,-0.039 c -0.42,-2.091 -0.841,-4.171 -1.262,-6.232 m -35.166,-57.724 c 1.175,10.117 4.135,36.022 6.939,64.041 l 13.961,-0.04 c -0.342,-2.331 -0.688,-4.645 -1.033,-6.933 -2.503,-16.613 -5.009,-31.903 -6.888,-43.038 -1.024,-6.073 -1.858,-10.89 -2.409,-14.03 z m -1.908,0 -10.587,0 c 0.585,10.065 2.069,36.029 3.472,64.087 l 14.061,-0.041 c -0.223,-2.215 -0.445,-4.419 -0.668,-6.6 -1.693,-16.561 -3.384,-31.964 -4.651,-43.224 -0.692,-6.14 -1.255,-11.028 -1.627,-14.222 m -12.48,0 -10.594,0 c -10e-4,9.988 -10e-4,35.998 -10e-4,64.132 l 14.071,-0.04 c -0.889,-17.746 -1.808,-34.65 -2.512,-47.202 -0.413,-7.373 -0.75,-13.226 -0.964,-16.89 m -10.595,148.925 17.089,0.007 c 0.012,-0.723 0.022,-1.442 0.022,-2.144 0,-0.002 0.001,-0.003 0.001,-0.005 0,-2.216 -0.025,-4.716 -0.071,-7.447 -3.004,-3.954 -4.809,-8.865 -4.809,-14.203 l 0,-33.231 c 0,-3.907 0.971,-7.586 2.661,-10.833 -0.211,-4.501 -0.428,-9.015 -0.65,-13.494 l -14.243,0.039 z m 0,54.298 10.122,0 c 3.285,-16.799 6.249,-35.534 6.868,-50.808 l -16.99,-0.007 z m 0,36.726 c 0.642,0.014 1.282,0.045 1.916,0.09 0.232,-0.93 0.479,-1.928 0.742,-3.003 1.887,-7.703 4.511,-18.976 7.006,-31.491 l -9.664,0 z m 5.434,0.514 c 0.558,-1.115 1.167,-2.345 1.825,-3.691 3.751,-7.639 8.949,-18.818 13.903,-31.227 l -9.55,0 c -2.829,14.243 -5.834,26.9 -7.769,34.681 0.54,0.068 1.07,0.146 1.591,0.237 m 2.857,0.662 c 1.032,-1.423 2.207,-3.059 3.508,-4.895 5.456,-7.697 12.988,-18.736 20.23,-30.685 l -8.762,0 c -0.845,2.132 -1.696,4.231 -2.547,6.283 -4.989,11.991 -9.97,22.406 -13.285,29.062 0.291,0.074 0.577,0.152 0.856,0.235 m 2.066,0.746 c 1.622,-1.598 3.584,-3.558 5.819,-5.841 7.343,-7.503 17.49,-18.386 27.216,-30.485 l -9.018,0 c -1.17,1.951 -2.349,3.88 -3.527,5.78 -7.831,12.576 -15.643,23.729 -20.548,30.521 0.018,0.007 0.038,0.015 0.058,0.025 M 6.219,71.847 c -3.89,5.126 -9.809,8.623 -16.565,9.248 -0.003,0.12 -0.003,0.237 -0.007,0.357 l 16.892,0 C 6.519,78.548 6.405,75.317 6.219,71.847 M -15.936,1.149 c 1.115,-0.163 2.246,-0.275 3.406,-0.275 4.028,0 7.822,1.02 11.141,2.81 C -1.565,2.455 -1.742,1.227 -1.92,0.005 l -14.125,0.04 c 0.036,0.368 0.072,0.736 0.109,1.104 m -15.728,9.598 c 3.292,-4.592 8.182,-7.95 13.86,-9.256 C -17.851,1.01 -17.898,0.53 -17.946,0.05 l -14.232,0.042 c 0.174,3.536 0.345,7.098 0.514,10.655 m 19.134,67.319 c 11.254,0 20.409,-9.156 20.409,-20.411 l 0,-33.231 C 7.879,13.17 -1.276,4.015 -12.53,4.015 c -11.254,0 -20.409,9.155 -20.409,20.409 l 0,33.231 c 0,11.255 9.155,20.411 20.409,20.411 m -16.782,1.248 c -10e-4,0.702 -0.009,1.417 -0.022,2.138 l 17.091,0 c 0.003,-0.088 0.003,-0.173 0.005,-0.261 -0.098,10e-4 -0.193,0.015 -0.292,0.015 -6.586,0 -12.541,-2.726 -16.819,-7.098 0.024,1.86 0.037,3.608 0.038,5.201 0,0.002 -0.001,0.003 -0.001,0.005 m 5.179,56.431 9.248,0 c 1.805,-3.024 3.582,-6.095 5.294,-9.177 C -1.074,111.291 5.761,95.673 6.473,84.936 l -17.022,0 c -1.23,15.464 -7.075,34.059 -13.584,50.809 m 11.69,-50.809 -16.991,0 c -0.617,15.379 -3.546,34.045 -6.809,50.809 l 10.012,0 c 6.59,-16.822 12.545,-35.6 13.788,-50.809 M 3.945,126.482 C 14.31,112.223 22.74,97.131 24.825,84.936 l -16.461,0 c -0.885,13.676 -10.36,32.943 -20.919,50.809 l 9.49,0 c 2.391,-3.032 4.745,-6.131 7.01,-9.263 m -54.146,11.585 -9.664,0 c 0.37,1.849 0.74,3.681 1.111,5.467 2.143,10.303 4.286,19.453 5.894,26.024 0.265,1.079 0.512,2.081 0.745,3.015 0.634,-0.047 1.272,-0.08 1.914,-0.097 z m 0,-53.138 -16.981,-0.007 c 0.618,15.272 3.568,34.02 6.856,50.823 l 10.125,0 z m 0,-84.786 -14.247,0.04 c -1.503,30.371 -2.865,62.51 -2.865,79.126 0,0.694 0.018,1.416 0.029,2.13 l 17.083,0.007 z m 0,-67.621 -10.596,0 c -0.186,3.197 -0.465,8.053 -0.808,14.141 -0.721,12.788 -1.713,30.927 -2.67,50.036 l 14.074,-0.04 z m -23.076,0 c -0.371,3.193 -0.935,8.081 -1.626,14.22 -1.44,12.776 -3.425,30.904 -5.335,50.003 l 14.072,-0.04 c 1.405,-28.113 2.891,-54.118 3.476,-64.183 z m -12.474,0 c -0.557,3.191 -1.407,8.109 -2.452,14.298 -2.159,12.763 -5.134,30.883 -7.998,49.97 l 14.059,-0.04 c 2.809,-28.09 5.781,-54.089 6.959,-64.228 z m -11.979,0 c -0.74,3.179 -1.897,8.194 -3.324,14.527 -2.869,12.711 -6.821,30.764 -10.627,49.786 l 13.556,-0.04 c 4.209,-28.069 8.667,-54.063 10.446,-64.273 z M -123.84,79.31 c -0.002,0.686 0.031,1.391 0.08,2.103 l 16.62,0.008 c -0.034,-0.711 -0.059,-1.416 -0.061,-2.111 0.008,-16.745 4.068,-48.748 8.558,-79.03 l -13.73,0.038 c -6.02,30.416 -11.486,62.61 -11.467,78.992 m 10.476,30.47 c 4.985,8.691 11.308,17.578 17.923,25.965 l 8.911,0 c -9.746,-16.739 -18.49,-35.287 -20.319,-50.839 L -123.335,84.9 c 1.272,7.486 4.906,16.085 9.971,24.88 m 36.017,47.179 c 6.019,6.584 11.437,12.121 15.347,16.009 0.291,0.288 0.57,0.564 0.841,0.833 -4.97,-6.645 -12.521,-17.154 -20.081,-29.273 -1.313,-2.11 -2.624,-4.268 -3.926,-6.461 l -8.429,0 c 5.475,6.812 11.082,13.242 16.248,18.892 m 19.718,16.473 c -3.313,-6.655 -8.299,-17.08 -13.292,-29.082 -0.851,-2.052 -1.704,-4.151 -2.548,-6.283 l -9.366,0 c 1.027,1.708 2.059,3.394 3.093,5.047 6.42,10.292 12.847,19.435 17.667,26.001 1.264,1.722 2.412,3.261 3.426,4.602 0.331,-0.101 0.671,-0.196 1.02,-0.285 M -86.071,84.915 c 1.244,15.198 7.187,34.013 13.781,50.83 l 10.021,0 c -3.265,-16.769 -6.193,-35.443 -6.811,-50.823 z m -0.242,-5.605 c -10e-4,0.695 0.016,1.404 0.04,2.121 l 17.093,0.007 c -0.012,-0.719 -0.02,-1.43 -0.02,-2.129 0,-16.692 1.36,-48.782 2.86,-79.121 l -14.245,0.041 c -3.005,30.376 -5.731,62.514 -5.728,79.081 m -18.637,5.597 c 1.869,15.118 10.815,34.001 20.733,50.838 l 9.838,0 C -80.893,118.987 -86.74,100.382 -87.966,84.914 z m 16.789,-3.477 c -0.025,-0.715 -0.04,-1.423 -0.041,-2.12 0.004,-16.719 2.716,-48.765 5.713,-79.076 l -14.234,0.041 c -4.507,30.378 -8.596,62.519 -8.59,79.035 -10e-4,0.692 0.023,1.399 0.057,2.112 z m 32.535,91.573 c 0.517,-0.092 1.048,-0.169 1.586,-0.237 -1.934,-7.781 -4.943,-20.444 -7.773,-34.699 l -9.557,0 c 0.706,1.769 1.419,3.515 2.132,5.226 4.281,10.292 8.563,19.435 11.777,26.002 0.661,1.353 1.274,2.588 1.835,3.708 M 28.161,79.309 c -0.003,0.969 -0.06,1.953 -0.145,2.946 -0.067,0.457 -0.136,1.378 -0.253,2.238 -1.218,8.574 -5.201,17.861 -10.6,27.298 -14.848,25.846 -40.726,52.815 -52.338,64.321 0.004,0.002 0.007,0.004 0.009,0.007 -1.896,5.13 -7.02,21.579 -13.216,23.095 l -1.749,0.009 c -6.136,-1.488 -10.638,-18.786 -13.215,-23.104 0.002,-0.002 0.004,-0.003 0.006,-0.005 -6.516,-6.459 -17.521,-17.787 -28.552,-31.046 -8.627,-10.373 -17.265,-21.918 -23.785,-33.277 -6.506,-11.374 -10.97,-22.531 -10.994,-32.481 0.015,-18.991 6.804,-56.7 13.576,-89.911 5.11,-25.028 10.218,-47.393 12.419,-56.877 l -2.306,0 -6.814,-18.447 121.054,0 -6.813,18.447 -2.283,0 c 2.202,9.483 7.31,31.849 12.421,56.878 6.771,33.21 13.559,70.92 13.578,89.909"
         style="fill:#1e120d;fill-opacity:1;fill-rule:nonzero;stroke:none"
         id="path142"
         sodipodi:nodetypes="ccsscccccccccccccccccccccccccccccccccccsscsscccccccccccccccccccccccccccccccccccccccccsccccccccccssssscccccsccccccccccccccccccccccccccccccccccscccccccccccccccccccccccccccccccccccccccccccccccccccccccccccccccscccccccccccccccccccccccccccccccccccccccccccc" />
    </g>
    <g
       id="g132"
       transform="matrix(0.4835056,0,0,-0.4835056,62.376471,986.94133)">
      <path
         inkscape:connector-curvature="0"
         d="m 0,0 c -0.286,0.027 -0.705,-0.306 -1.075,0.022 -0.221,0.167 -0.348,0.643 -0.401,1.081 -0.052,0.438 0.533,1.046 0.359,0.949 -0.177,-0.099 0.242,0.232 1.031,0.189 C -0.079,2.066 0.629,1.639 0.629,1.639 0.629,1.639 0.751,0.419 0,0 M 7.799,1.116 C 7.319,1.391 4.754,1.359 3.021,2.066 3.187,3.7 1.028,5.479 1.028,5.479 c 0,0 -1.607,1.483 -3.854,1.397 -0.072,-0.099 -1.927,0.194 -3.581,-0.719 -2.18,-1.153 -2.884,-2.138 -4.955,-5.072 -1.397,-1.725 -3.033,-5.854 -3.033,-5.854 0,0 -5.307,-5.125 -5.533,-5.281 -1.582,-1.415 -4.282,-6.545 -4.836,-7.244 -0.554,-0.701 -5.424,-7.524 -6.476,-11.354 -1.068,-1.476 -0.998,-1.792 -1.443,-2.341 -0.443,-0.552 -3.905,-4.404 -4.086,-4.748 -0.178,-0.344 -0.702,-0.854 -0.938,-1.772 0.176,-0.56 4.9,3.996 4.9,3.996 0,0 -4.594,-5.29 -4.319,-5.37 1.327,0.744 2.807,1.954 2.807,1.954 0,0 3.902,3.004 3.811,2.33 -0.091,-0.673 -16.343,-14.078 -16.041,-14.87 0.302,-0.795 4.236,1.096 4.589,0.973 0.355,-0.125 -2.132,-6.399 -1.657,-6.62 2.102,-0.982 10.216,12.471 11.375,12.68 1.153,0.212 10.827,5.248 12.718,5.894 1.295,-0.764 2.338,-1.065 3.181,-1.1 0.478,-1.011 2.373,-5.604 1.772,-6.735 -0.686,-1.302 -2.423,-3.24 -1.749,-5.265 0.172,1.672 2.276,3.672 3.069,4.944 0.301,0.486 2.205,-0.789 2.706,-0.873 0.597,-0.103 3.084,-1.825 3.376,-1.566 0.395,0.344 -2.163,3.146 -2.251,3.387 -0.141,0.383 0.327,1.557 -0.156,1.779 -0.49,0.226 -0.853,0.058 -1.282,-0.255 -1.247,-0.907 -2.327,2.878 -3.543,5.107 0.912,0.622 1.234,1.569 1.234,1.569 0,0 6.068,2.502 8.289,5.254 0.578,0.032 5.43,6.897 5.781,7.872 -0.032,0.809 2.948,4.941 2.856,11.325 0,0 -0.279,3.689 -0.886,4.369 -0.297,0.651 -0.125,3.775 0.23,4.655 0.921,0.244 5.113,2.947 4.696,3.191"
         style="fill:#1e120d;fill-opacity:1;fill-rule:nonzero;stroke:none"
         id="path134" />
    </g>
  </g>
</svg>
