<?xml version="1.0" encoding="UTF-8" standalone="no"?>
<!-- Created with Inkscape (http://www.inkscape.org/) -->

<svg
   xmlns:dc="http://purl.org/dc/elements/1.1/"
   xmlns:cc="http://creativecommons.org/ns#"
   xmlns:rdf="http://www.w3.org/1999/02/22-rdf-syntax-ns#"
   xmlns:svg="http://www.w3.org/2000/svg"
   xmlns="http://www.w3.org/2000/svg"
   xmlns:sodipodi="http://sodipodi.sourceforge.net/DTD/sodipodi-0.dtd"
   xmlns:inkscape="http://www.inkscape.org/namespaces/inkscape"
   width="128"
   height="128"
   id="svg3384"
   version="1.1"
   inkscape:version="0.48.5 r10040"
   sodipodi:docname="icon-small.svg"
   inkscape:export-filename="/home/herman/Repos/universal-kiosk/src/icon_16.png"
   inkscape:export-xdpi="11.25"
   inkscape:export-ydpi="11.25">
  <defs
     id="defs3386">
    <inkscape:perspective
       sodipodi:type="inkscape:persp3d"
       inkscape:vp_x="0 : 64 : 1"
       inkscape:vp_y="0 : 1000 : 0"
       inkscape:vp_z="128 : 64 : 1"
       inkscape:persp3d-origin="64 : 42.666667 : 1"
       id="perspective3568" />
  </defs>
  <sodipodi:namedview
     id="base"
     pagecolor="#ffffff"
     bordercolor="#666666"
     borderopacity="1.0"
     inkscape:pageopacity="0.0"
     inkscape:pageshadow="2"
     inkscape:zoom="3.959798"
     inkscape:cx="141.70946"
     inkscape:cy="68.042434"
     inkscape:document-units="px"
     inkscape:current-layer="layer1"
     showgrid="true"
     inkscape:window-width="1920"
     inkscape:window-height="1023"
     inkscape:window-x="-1"
     inkscape:window-y="33"
     inkscape:window-maximized="1"
     inkscape:snap-nodes="true"
     inkscape:snap-bbox="true">
    <inkscape:grid
       type="xygrid"
       id="grid3410"
       empspacing="5"
       visible="true"
       enabled="true"
       snapvisiblegridlinesonly="true" />
  </sodipodi:namedview>
  <metadata
     id="metadata3389">
    <rdf:RDF>
      <cc:Work
         rdf:about="">
        <dc:format>image/svg+xml</dc:format>
        <dc:type
           rdf:resource="http://purl.org/dc/dcmitype/StillImage" />
        <dc:title></dc:title>
      </cc:Work>
    </rdf:RDF>
  </metadata>
  <g
     inkscape:label="Layer 1"
     inkscape:groupmode="layer"
     id="layer1"
     transform="translate(0,-924.36218)">
    <g
       id="g140"
       transform="matrix(0.45210292,0,0,-0.35069508,86.268329,1008.2287)" />
    <g
       id="g132"
       transform="matrix(1.8388698,0,0,-1.8388698,99.605195,943.91679)">
      <path
         inkscape:connector-curvature="0"
         d="m 0,0 c -0.286,0.027 -0.705,-0.306 -1.075,0.022 -0.221,0.167 -0.348,0.643 -0.401,1.081 -0.052,0.438 0.533,1.046 0.359,0.949 -0.177,-0.099 0.242,0.232 1.031,0.189 C -0.079,2.066 0.629,1.639 0.629,1.639 0.629,1.639 0.751,0.419 0,0 M 7.799,1.116 C 7.319,1.391 4.754,1.359 3.021,2.066 3.187,3.7 1.028,5.479 1.028,5.479 c 0,0 -1.607,1.483 -3.854,1.397 -0.072,-0.099 -1.927,0.194 -3.581,-0.719 -2.18,-1.153 -2.884,-2.138 -4.955,-5.072 -1.397,-1.725 -3.033,-5.854 -3.033,-5.854 0,0 -5.307,-5.125 -5.533,-5.281 -1.582,-1.415 -4.282,-6.545 -4.836,-7.244 -0.554,-0.701 -5.424,-7.524 -6.476,-11.354 -1.068,-1.476 -0.998,-1.792 -1.443,-2.341 -0.443,-0.552 -3.905,-4.404 -4.086,-4.748 -0.178,-0.344 -0.702,-0.854 -0.938,-1.772 0.176,-0.56 4.9,3.996 4.9,3.996 0,0 -4.594,-5.29 -4.319,-5.37 1.327,0.744 2.807,1.954 2.807,1.954 0,0 3.902,3.004 3.811,2.33 -0.091,-0.673 -16.343,-14.078 -16.041,-14.87 0.302,-0.795 4.236,1.096 4.589,0.973 0.355,-0.125 -2.132,-6.399 -1.657,-6.62 2.102,-0.982 10.216,12.471 11.375,12.68 1.153,0.212 10.827,5.248 12.718,5.894 1.295,-0.764 2.338,-1.065 3.181,-1.1 0.478,-1.011 2.373,-5.604 1.772,-6.735 -0.686,-1.302 -2.423,-3.24 -1.749,-5.265 0.172,1.672 2.276,3.672 3.069,4.944 0.301,0.486 2.205,-0.789 2.706,-0.873 0.597,-0.103 3.084,-1.825 3.376,-1.566 0.395,0.344 -2.163,3.146 -2.251,3.387 -0.141,0.383 0.327,1.557 -0.156,1.779 -0.49,0.226 -0.853,0.058 -1.282,-0.255 -1.247,-0.907 -2.327,2.878 -3.543,5.107 0.912,0.622 1.234,1.569 1.234,1.569 0,0 6.068,2.502 8.289,5.254 0.578,0.032 5.43,6.897 5.781,7.872 -0.032,0.809 2.948,4.941 2.856,11.325 0,0 -0.279,3.689 -0.886,4.369 -0.297,0.651 -0.125,3.775 0.23,4.655 0.921,0.244 5.113,2.947 4.696,3.191"
         style="fill:#1e120d;fill-opacity:1;fill-rule:nonzero;stroke:none"
         id="path134" />
    </g>
  </g>
</svg>
